#Comment line ignore any data following # character 
#Hierarchical Translation and Rotation (.htr) file 
[Header]	
#Header keywords are followed by a single value 
FileType HTR		#Single word string
DataType HTRS		#Translation followed by rotation and scale data
FileVersion 1		#integer
NumSegments 64		#integer
NumFrames 3		#integer
DataFrameRate 30		#integer, data frame rate in this file
EulerRotationOrder ZYX
CalibrationUnits mm
RotationUnits Degrees
GlobalAxisofGravity Y
BoneLengthAxis Y
ScaleFactor 1.00
[SegmentNames&Hierarchy]
#CHILD	PARENT
Pinger_Root GLOBAL
Pelvis Pinger_Root
L_Hip Pelvis
R_Hip Pelvis
Rear_Leg01 Pelvis
Spine1 Pelvis
L_Leg01 L_Hip
L_Leg02 L_Leg01
L_Leg03 L_Leg02
L_Foot L_Leg03
L_Toe1_01 L_Foot
L_Toe2_01 L_Foot
L_Toe3_01 L_Foot
planeAlignerLeft L_Foot
L_Toe1_02 L_Toe1_01
L_Toe1_03 L_Toe1_02
L_Toe2_02 L_Toe2_01
L_Toe2_03 L_Toe2_02
L_Toe3_02 L_Toe3_01
L_Toe3_03 L_Toe3_02
planeLockWeightLeft planeAlignerLeft
R_Leg01 R_Hip
R_Leg02 R_Leg01
R_Leg03 R_Leg02
R_Foot R_Leg03
planeAlignerRight R_Foot
R_Toe1_01 R_Foot
R_Toe2_01 R_Foot
R_Toe3_01 R_Foot
planeLockWeightRight planeAlignerRight
R_Toe1_02 R_Toe1_01
R_Toe1_03 R_Toe1_02
R_Toe2_02 R_Toe2_01
R_Toe2_03 R_Toe2_02
R_Toe3_02 R_Toe3_01
R_Toe3_03 R_Toe3_02
Rear_Leg02 Rear_Leg01
Rear_Leg03 Rear_Leg02
Rear_Leg04 Rear_Leg03
Rear_Foot Rear_Leg04
planeAlignerCenter Rear_Foot
Rear_Toe1_01 Rear_Foot
Rear_Toe2_01 Rear_Foot
Rear_Toe3_01 Rear_Foot
planeLockWeightCenter planeAlignerCenter
Rear_Toe1_02 Rear_Toe1_01
Rear_Toe1_03 Rear_Toe1_02
Rear_Toe2_02 Rear_Toe2_01
Rear_Toe2_03 Rear_Toe2_02
Rear_Toe3_02 Rear_Toe3_01
Rear_Toe3_03 Rear_Toe3_02
Back_Bone Spine1
Head Spine1
Motor_Bone Back_Bone
Ping_Mechanism Back_Bone
BN_LookIK Head
bottomMouth Head
L_Mouth01 Head
L_mouthFront Head
mouthGun Head
R_Mouth01 Head
R_mouthFront Head
TopMouth Head
weapon_bone Head
[BasePosition]
#SegmentName Tx, Ty, Tz, Rx, Ry, Rz, BoneLength
Pinger_Root 0.000000 0.000000 0.000000 -90.000000 0.000000 0.000000 10.000000 
Pelvis 0.000000 0.000000 0.000000 0.000000 0.000000 0.000000 10.000000 
L_Hip 0.000000 0.000000 0.000000 0.000000 0.000000 0.000000 10.000000 
R_Hip 0.000000 0.000000 0.000000 0.000000 0.000000 0.000000 10.000000 
Rear_Leg01 0.000000 0.000000 0.000000 0.000000 0.000000 0.000000 10.000000 
Spine1 0.000000 0.000000 0.000000 0.000000 0.000000 0.000000 10.000000 
L_Leg01 0.000000 0.000000 0.000000 0.000000 0.000000 0.000000 10.000000 
L_Leg02 0.000000 0.000000 0.000000 0.000000 0.000000 0.000000 10.000000 
L_Leg03 0.000000 0.000000 0.000000 0.000000 0.000000 0.000000 10.000000 
L_Foot 0.000000 0.000000 0.000000 0.000000 0.000000 0.000000 10.000000 
L_Toe1_01 0.000000 0.000000 0.000000 0.000000 0.000000 0.000000 10.000000 
L_Toe2_01 0.000000 0.000000 0.000000 0.000000 0.000000 0.000000 10.000000 
L_Toe3_01 0.000000 0.000000 0.000000 0.000000 0.000000 0.000000 10.000000 
planeAlignerLeft 0.000000 0.000000 0.000000 0.000000 0.000000 0.000000 10.000000 
L_Toe1_02 0.000000 0.000000 0.000000 0.000000 0.000000 0.000000 10.000000 
L_Toe1_03 0.000000 0.000000 0.000000 0.000000 0.000000 0.000000 10.000000 
L_Toe2_02 0.000000 0.000000 0.000000 0.000000 0.000000 0.000000 10.000000 
L_Toe2_03 0.000000 0.000000 0.000000 0.000000 0.000000 0.000000 10.000000 
L_Toe3_02 0.000000 0.000000 0.000000 0.000000 0.000000 0.000000 10.000000 
L_Toe3_03 0.000000 0.000000 0.000000 0.000000 0.000000 0.000000 10.000000 
planeLockWeightLeft 0.000000 0.000000 0.000000 0.000000 0.000000 0.000000 10.000000 
R_Leg01 0.000000 0.000000 0.000000 0.000000 0.000000 0.000000 10.000000 
R_Leg02 0.000000 0.000000 0.000000 0.000000 0.000000 0.000000 10.000000 
R_Leg03 0.000000 0.000000 0.000000 0.000000 0.000000 0.000000 10.000000 
R_Foot 0.000000 0.000000 0.000000 0.000000 0.000000 0.000000 10.000000 
planeAlignerRight 0.000000 0.000000 0.000000 0.000000 0.000000 0.000000 10.000000 
R_Toe1_01 0.000000 0.000000 0.000000 0.000000 0.000000 0.000000 10.000000 
R_Toe2_01 0.000000 0.000000 0.000000 0.000000 0.000000 0.000000 10.000000 
R_Toe3_01 0.000000 0.000000 0.000000 0.000000 0.000000 0.000000 10.000000 
planeLockWeightRight 0.000000 0.000000 0.000000 0.000000 0.000000 0.000000 10.000000 
R_Toe1_02 0.000000 0.000000 0.000000 0.000000 0.000000 0.000000 10.000000 
R_Toe1_03 0.000000 0.000000 0.000000 0.000000 0.000000 0.000000 10.000000 
R_Toe2_02 0.000000 0.000000 0.000000 0.000000 0.000000 0.000000 10.000000 
R_Toe2_03 0.000000 0.000000 0.000000 0.000000 0.000000 0.000000 10.000000 
R_Toe3_02 0.000000 0.000000 0.000000 0.000000 0.000000 0.000000 10.000000 
R_Toe3_03 0.000000 0.000000 0.000000 0.000000 0.000000 0.000000 10.000000 
Rear_Leg02 0.000000 0.000000 0.000000 0.000000 0.000000 0.000000 10.000000 
Rear_Leg03 0.000000 0.000000 0.000000 0.000000 0.000000 0.000000 10.000000 
Rear_Leg04 0.000000 0.000000 0.000000 0.000000 0.000000 0.000000 10.000000 
Rear_Foot 0.000000 0.000000 0.000000 0.000000 0.000000 0.000000 10.000000 
planeAlignerCenter 0.000000 0.000000 0.000000 0.000000 0.000000 0.000000 10.000000 
Rear_Toe1_01 0.000000 0.000000 0.000000 0.000000 0.000000 0.000000 10.000000 
Rear_Toe2_01 0.000000 0.000000 0.000000 0.000000 0.000000 0.000000 10.000000 
Rear_Toe3_01 0.000000 0.000000 0.000000 0.000000 0.000000 0.000000 10.000000 
planeLockWeightCenter 0.000000 0.000000 0.000000 0.000000 0.000000 0.000000 10.000000 
Rear_Toe1_02 0.000000 0.000000 0.000000 0.000000 0.000000 0.000000 10.000000 
Rear_Toe1_03 0.000000 0.000000 0.000000 0.000000 0.000000 0.000000 10.000000 
Rear_Toe2_02 0.000000 0.000000 0.000000 0.000000 0.000000 0.000000 10.000000 
Rear_Toe2_03 0.000000 0.000000 0.000000 0.000000 0.000000 0.000000 10.000000 
Rear_Toe3_02 0.000000 0.000000 0.000000 0.000000 0.000000 0.000000 10.000000 
Rear_Toe3_03 0.000000 0.000000 0.000000 0.000000 0.000000 0.000000 10.000000 
Back_Bone 0.000000 0.000000 0.000000 0.000000 0.000000 0.000000 10.000000 
Head 0.000000 0.000000 0.000000 0.000000 0.000000 0.000000 10.000000 
Motor_Bone 0.000000 0.000000 0.000000 0.000000 0.000000 0.000000 10.000000 
Ping_Mechanism 0.000000 0.000000 0.000000 0.000000 0.000000 0.000000 10.000000 
BN_LookIK 0.000000 0.000000 0.000000 0.000000 0.000000 0.000000 10.000000 
bottomMouth 0.000000 0.000000 0.000000 0.000000 0.000000 0.000000 10.000000 
L_Mouth01 0.000000 0.000000 0.000000 0.000000 0.000000 0.000000 10.000000 
L_mouthFront 0.000000 0.000000 0.000000 0.000000 0.000000 0.000000 10.000000 
mouthGun 0.000000 0.000000 0.000000 0.000000 0.000000 0.000000 10.000000 
R_Mouth01 0.000000 0.000000 0.000000 0.000000 0.000000 0.000000 10.000000 
R_mouthFront 0.000000 0.000000 0.000000 0.000000 0.000000 0.000000 10.000000 
TopMouth 0.000000 0.000000 0.000000 0.000000 0.000000 0.000000 10.000000 
weapon_bone 0.000000 0.000000 0.000000 0.000000 0.000000 0.000000 10.000000 
#Beginning of Data. Separated by tabs
#Fr	Tx	Ty	Tz	Rx	Ry	Rz	SF
[Pinger_Root]
50 0.000000 0.000000 0.000000 -0.000000 -0.000000 -89.999962 0.000000
51 0.000000 0.000000 0.000000 0.000000 -0.000000 -90.000000 0.000000
52 0.000000 0.000000 0.000000 0.000000 -0.000000 -89.999992 0.000000
[Pelvis]
50 -19.244360 488.867340 4432.232422 -100.373741 -85.973427 93.252769 4459.152832
51 -1.754900 573.664490 4432.232422 -100.372429 -85.973289 93.180817 4469.203125
52 15.734837 658.462036 4432.232422 -100.370728 -85.972992 93.108475 4480.904297
[L_Hip]
50 5.766392 125.831482 872.656799 160.158691 -45.484905 122.312202 881.701050
51 5.766392 125.831482 872.656799 160.158691 -45.484905 122.312202 881.701050
52 5.766392 125.831482 872.656799 160.158691 -45.484905 122.312202 881.701050
[R_Hip]
50 5.765438 125.836372 -872.654907 38.087841 49.812698 125.703743 881.699829
51 5.765438 125.836372 -872.654907 38.087841 49.812687 125.703735 881.699829
52 5.765438 125.836372 -872.654907 38.087841 49.812687 125.703735 881.699829
[Rear_Leg01]
50 -192.298416 -925.602966 -0.001907 170.226791 2.504689 -163.960922 945.367432
51 -192.298416 -925.602966 -0.001907 170.128601 2.403750 -163.144180 945.367432
52 -192.298416 -925.602966 -0.001907 170.028976 2.304203 -162.327240 945.367432
[Spine1]
50 290.604584 5.007505 0.000477 6.116440 -0.529160 19.527699 290.647736
51 290.604584 5.007505 0.000477 6.280595 -0.542459 19.490543 290.647736
52 290.604584 5.007505 0.000477 6.444765 -0.555647 19.453348 290.647736
[L_Leg01]
50 761.932007 -0.002384 -0.069261 19.904152 -18.899084 -6.468341 761.932068
51 761.932007 -0.002384 -0.069261 20.646614 -18.148939 -8.004249 761.932068
52 761.932007 -0.002384 -0.069261 21.364592 -17.380304 -9.523329 761.932068
[L_Leg02]
50 1441.140503 -0.000954 -0.000715 2.246356 -0.175836 -125.688217 1441.140503
51 1441.140503 -0.000954 -0.000715 2.128957 -0.173485 -124.560356 1441.140503
52 1441.140503 -0.000954 -0.000715 2.011618 -0.168823 -123.432487 1441.140503
[L_Leg03]
50 1686.963989 -0.000715 -0.000954 -0.027437 0.010371 117.717590 1686.963989
51 1686.963989 -0.000715 -0.000954 -0.027451 0.010336 117.573074 1686.963989
52 1686.963989 -0.000715 -0.000954 -0.027464 0.010301 117.428490 1686.963989
[L_Foot]
50 3041.570068 -30.715107 11.297464 4.556843 12.899646 49.795605 3041.746094
51 3041.570068 -30.715107 11.297464 4.128574 12.990831 50.325043 3041.746094
52 3041.570068 -30.715107 11.297464 3.701030 13.085854 50.853951 3041.746094
[L_Toe1_01]
50 -188.216690 -224.732346 -21.137953 93.707680 -9.071778 -169.727249 293.899567
51 -188.216690 -224.732346 -21.137953 93.724312 -7.967217 -170.850388 293.899567
52 -188.216690 -224.732346 -21.137953 93.719086 -6.862515 -171.970444 293.899567
[L_Toe2_01]
50 200.746536 -219.926590 148.838394 -87.939995 -26.386461 -57.420738 332.896027
51 200.746536 -219.926590 148.838394 -88.795517 -26.365082 -55.477436 332.896027
52 200.746536 -219.926590 148.838394 -90.023994 -26.311714 -52.677658 332.896027
[L_Toe3_01]
50 188.832520 -219.859131 -191.078659 -99.339943 9.661550 -71.743492 347.140900
51 188.832520 -219.859131 -191.078659 -99.601036 11.746346 -69.711838 347.140900
52 188.832520 -219.859131 -191.078659 -99.788055 13.838998 -67.673050 347.140900
[planeAlignerLeft]
50 73.615799 -670.883301 146.661636 169.306686 -76.298271 89.968506 690.661499
51 53.401260 -631.991150 123.792336 169.306686 -76.298271 89.968506 646.211304
52 33.186188 -593.098022 100.922424 169.306686 -76.298271 89.968506 602.537903
[L_Toe1_02]
50 413.761139 0.000477 0.000000 0.001384 -26.012934 0.001384 413.761139
51 413.761139 0.000477 0.000000 0.001384 -26.012934 0.001384 413.761139
52 413.761139 0.000477 0.000000 0.001384 -26.012926 0.001384 413.761139
[L_Toe1_03]
50 464.317322 0.000358 -0.000089 0.004322 58.488529 0.004322 464.317322
51 464.317322 0.000358 -0.000089 0.004043 56.250404 0.004043 464.317322
52 464.317322 0.000358 -0.000089 0.003734 53.359127 0.003734 464.317322
[L_Toe2_02]
50 342.235809 -0.000477 0.000238 -0.002388 -63.129860 -0.002388 342.235809
51 342.235809 -0.000477 0.000238 0.001195 -68.419006 0.001195 342.235809
52 342.235809 -0.000477 0.000238 0.001188 -72.401962 0.001188 342.235809
[L_Toe2_03]
50 420.210846 -0.000715 0.000000 -0.000998 66.177414 -0.004571 420.210846
51 420.210846 -0.000715 0.000000 0.009741 76.159737 0.009740 420.210846
52 420.210846 -0.000715 0.000000 0.029089 85.375381 0.029089 420.210846
[L_Toe3_02]
50 329.270111 0.000954 0.000000 0.001182 -76.564621 0.001182 329.270111
51 329.270111 0.000954 0.000000 0.001179 -78.761276 0.001179 329.270111
52 329.270111 0.000954 0.000000 0.001178 -80.480293 0.001178 329.270111
[L_Toe3_03]
50 439.137451 -0.001907 0.000954 -0.047896 88.572342 -0.044399 439.137451
51 439.137451 -0.001907 0.000954 -179.989151 84.771484 -179.985657 439.137451
52 439.137451 -0.001907 0.000954 -179.995956 78.605736 -179.992447 439.137451
[planeLockWeightLeft]
50 999.999939 0.097961 0.076142 -0.011826 -0.004376 0.005620 999.999939
51 1000.000000 0.097961 0.076120 -0.011826 -0.004376 0.005620 1000.000000
52 1000.000000 0.097961 0.076098 -0.011826 -0.004376 0.005620 1000.000000
[R_Leg01]
50 761.455627 -0.001907 -0.000358 121.275436 -9.025939 35.008469 761.455688
51 761.455627 -0.001907 -0.000358 120.990135 -8.960793 34.901260 761.455688
52 761.455627 -0.001907 -0.000358 120.850281 -8.830791 35.024200 761.455688
[R_Leg02]
50 1441.140625 0.000000 -0.000238 -0.916184 -0.047040 -107.398613 1441.140625
51 1441.140625 0.000000 -0.000238 -1.012009 -0.071913 -109.934822 1441.140625
52 1441.140625 0.000000 -0.000238 -1.106639 -0.101003 -112.471001 1441.140625
[R_Leg03]
50 1686.963989 0.000954 0.001431 0.068160 -0.034755 128.273407 1686.963989
51 1686.963989 0.000954 0.001431 0.069623 -0.035707 128.893997 1686.963989
52 1686.963989 0.000954 0.001431 0.071075 -0.036676 129.514618 1686.963989
[R_Foot]
50 3041.560059 -30.531288 -11.204481 -0.308529 -24.295113 45.699032 3041.734131
51 3041.560059 -30.531288 -11.204481 -0.330977 -24.388210 47.580650 3041.734131
52 3041.560059 -30.531288 -11.204481 -0.356785 -24.480593 49.463703 3041.734131
[planeAlignerRight]
50 -126.654419 -572.955872 -312.454468 -36.577137 -71.339012 -64.343925 664.791321
51 -126.657204 -573.140442 -312.453033 -36.577137 -71.339012 -64.343925 664.950317
52 -126.659988 -573.325012 -312.451599 -36.577137 -71.339012 -64.343925 665.109253
[R_Toe1_01]
50 -188.383347 -224.864899 21.052242 76.762878 -0.413272 -172.744278 294.101532
51 -188.383347 -224.864899 21.052242 76.762978 -0.413461 -172.742050 294.101532
52 -188.383347 -224.864899 21.052242 76.763077 -0.413650 -172.739838 294.101532
[R_Toe2_01]
50 200.637817 -220.002121 -148.787384 -91.738075 32.878651 -59.170483 332.857574
51 200.637817 -220.002121 -148.787384 -91.738808 32.877956 -59.172150 332.857574
52 200.637817 -220.002121 -148.787384 -91.739540 32.877266 -59.173809 332.857574
[R_Toe3_01]
50 188.606735 -220.092957 191.126343 -73.227890 -8.455499 -73.743988 347.192566
51 188.606735 -220.092957 191.126343 -73.227623 -8.455696 -73.745728 347.192566
52 188.606735 -220.092957 191.126343 -73.227356 -8.455891 -73.747467 347.192566
[planeLockWeightRight]
50 999.999268 -0.000061 0.075907 -0.011823 -0.004379 -0.000027 999.999268
51 999.999207 -0.000052 0.075909 -0.011823 -0.004379 -0.000027 999.999207
52 999.999207 -0.000044 0.075911 -0.011823 -0.004379 -0.000027 999.999207
[R_Toe1_02]
50 413.762085 0.000477 -0.000119 0.001395 -24.546459 0.001395 413.762085
51 413.762085 0.000477 -0.000119 0.001395 -24.584129 0.001395 413.762085
52 413.762085 0.000477 -0.000119 0.001394 -24.621803 0.001394 413.762085
[R_Toe1_03]
50 464.317810 0.000000 0.001088 0.006629 69.603889 0.006629 464.317810
51 464.317810 0.000000 0.001088 0.006628 69.602386 0.006628 464.317810
52 464.317810 0.000000 0.001088 0.006628 69.600899 0.006628 464.317810
[R_Toe2_02]
50 342.234741 -0.000954 0.000238 0.001197 -67.225693 0.001197 342.234741
51 342.234741 -0.000954 0.000238 0.001197 -67.224228 0.001197 342.234741
52 342.234741 -0.000954 0.000238 0.001197 -67.222733 0.001197 342.234741
[R_Toe2_03]
50 420.210846 0.000715 -0.000268 0.008305 73.751511 0.008305 420.210846
51 420.210846 0.000715 -0.000268 0.008295 73.731575 0.008295 420.210846
52 420.210846 0.000715 -0.000268 0.008284 73.711693 0.008284 420.210846
[R_Toe3_02]
50 329.270355 -0.000477 -0.000954 0.001184 -74.529510 0.001184 329.270355
51 329.270355 -0.000477 -0.000954 0.001184 -74.527946 0.001184 329.270355
52 329.270355 -0.000477 -0.000954 0.001184 -74.526398 0.001184 329.270355
[R_Toe3_03]
50 439.137939 0.000238 0.001431 -0.011630 83.329262 -0.008127 439.137939
51 439.137939 0.000238 0.001431 -0.011624 83.325058 -0.008121 439.137939
52 439.137939 0.000238 0.001431 -0.011618 83.320976 -0.008115 439.137939
[Rear_Leg02]
50 1162.777710 -0.029802 0.005960 1.310816 -2.677252 -137.998383 1162.777710
51 1162.777710 -0.029802 0.005960 1.186435 -2.735895 -135.268036 1162.777710
52 1162.777710 -0.029802 0.005960 1.059319 -2.788583 -132.535858 1162.777710
[Rear_Leg03]
50 607.192505 -0.013351 -0.073195 0.010451 -0.005192 69.190277 607.192505
51 607.192505 -0.013351 -0.073195 0.010487 -0.005118 68.383125 607.192505
52 607.192505 -0.013351 -0.073195 0.010522 -0.005044 67.575996 607.192505
[Rear_Leg04]
50 995.874512 -0.020504 -0.011921 -0.040473 -0.018192 68.956223 995.874573
51 995.874512 -0.020504 -0.011921 -0.041212 -0.018191 67.036179 995.874573
52 995.874512 -0.020504 -0.011921 -0.041951 -0.018216 65.115036 995.874573
[Rear_Foot]
50 3096.176270 -0.067472 -0.041425 -121.455330 86.902748 66.191658 3096.176270
51 3096.176270 -0.067472 -0.041425 -128.843521 86.671333 59.780437 3096.176270
52 3096.176270 -0.067472 -0.041425 -132.860641 86.482025 56.697067 3096.176270
[planeAlignerCenter]
50 0.153121 -15.097656 -777.199463 12.240772 -0.001481 179.998169 777.346069
51 0.153196 -15.097482 -777.197510 12.240773 -0.001473 179.998184 777.344177
52 0.153174 -15.097307 -777.195557 12.240773 -0.001473 179.998184 777.342163
[Rear_Toe1_01]
50 0.653352 83.966492 -371.173737 0.291876 41.917854 90.413193 380.553192
51 0.653352 83.966492 -371.173737 0.292575 41.917324 90.413651 380.553192
52 0.653352 83.966492 -371.173737 0.293289 41.916790 90.414139 380.553192
[Rear_Toe2_01]
50 178.200760 -294.826019 -362.060547 -7.196278 34.406258 -66.271309 499.765686
51 178.200760 -294.826019 -362.060547 -7.196267 34.406261 -66.271294 499.765686
52 178.200760 -294.826019 -362.060547 -7.196267 34.406261 -66.271294 499.765686
[Rear_Toe3_01]
50 -153.359680 -308.780914 -362.060852 3.289409 33.518005 -112.541000 499.952881
51 -153.359680 -308.780914 -362.060852 3.289418 33.518005 -112.540970 499.952881
52 -153.359680 -308.780914 -362.060852 3.289418 33.518005 -112.540970 499.952881
[planeLockWeightCenter]
50 1000.000122 0.000610 0.076198 -0.011814 -0.004373 -0.000015 1000.000122
51 1000.000122 0.000610 0.076205 -0.011814 -0.004373 -0.000015 1000.000122
52 1000.000000 0.000610 0.076212 -0.011814 -0.004373 -0.000015 1000.000000
[Rear_Toe1_02]
50 379.707825 0.194073 0.000477 -0.000242 -31.676748 0.006934 379.707855
51 379.707825 0.194073 0.000477 -0.000242 -31.676748 0.006934 379.707855
52 379.707825 0.194073 0.000477 -0.000242 -31.676744 0.006934 379.707855
[Rear_Toe1_03]
50 500.129700 0.165701 0.000119 -0.000103 51.902504 0.007295 500.129761
51 500.129700 0.165701 0.000119 -0.000103 51.902481 0.007295 500.129761
52 500.129700 0.165701 0.000119 -0.000103 51.902485 0.007295 500.129761
[Rear_Toe2_02]
50 340.494507 0.000238 -0.000954 0.001192 -69.854523 0.001192 340.494507
51 340.494507 0.000238 -0.000954 0.001192 -69.854523 0.001192 340.494507
52 340.494507 0.000238 -0.000954 0.001192 -69.854523 0.001192 340.494507
[Rear_Toe2_03]
50 433.103577 0.000000 0.000238 0.006696 69.810303 0.006696 433.103546
51 433.103577 0.000000 0.000238 0.006696 69.810326 0.006696 433.103546
52 433.103577 0.000000 0.000238 0.006696 69.810341 0.006696 433.103546
[Rear_Toe3_02]
50 340.494141 -0.000358 -0.000477 0.008354 -67.445763 -0.009526 340.494171
51 340.494141 -0.000358 -0.000477 0.008345 -67.421333 -0.009517 340.494171
52 340.494141 -0.000358 -0.000477 0.008335 -67.396904 -0.009507 340.494171
[Rear_Toe3_03]
50 433.103577 0.001431 -0.000238 -0.000991 66.124245 -0.004565 433.103546
51 433.103577 0.001431 -0.000238 -0.000982 66.041649 -0.004556 433.103546
52 433.103577 0.001431 -0.000238 -0.000972 65.958984 -0.004547 433.103546
[Back_Bone]
50 1312.175781 -701.934692 0.000954 0.000023 -0.000007 -85.606667 1488.125488
51 1312.175781 -701.934692 0.000954 0.000023 -0.000007 -85.606667 1488.125488
52 1312.175781 -701.934692 0.000954 0.000023 -0.000007 -85.606667 1488.125488
[Head]
50 1406.159424 809.709290 0.001431 0.000008 0.000003 7.767519 1622.625488
51 1406.159424 809.709290 0.001431 0.000008 0.000003 7.767519 1622.625488
52 1406.159424 809.709290 0.001431 0.000008 0.000003 7.767519 1622.625488
[Motor_Bone]
50 1158.364380 -417.834747 0.000477 -0.095385 0.076109 -105.915703 1231.419434
51 1158.364380 -417.834747 0.000477 -0.095385 0.076104 -105.915718 1231.419434
52 1158.364380 -417.834747 0.000477 -0.095385 0.076104 -105.915703 1231.419434
[Ping_Mechanism]
50 1233.691528 -441.857269 -0.757083 0.000103 -0.000053 82.120995 1310.432495
51 1233.699097 -441.845001 -0.694551 0.000103 -0.000053 82.120995 1310.435425
52 1233.706421 -441.832703 -0.632043 0.000103 -0.000053 82.120995 1310.438232
[BN_LookIK]
50 193.241119 1380.371704 -0.002861 0.000000 89.965736 -31.038179 1393.832153
51 193.241119 1380.371704 -0.002861 0.000000 89.965736 -31.038179 1393.832153
52 193.241119 1380.371704 -0.002861 0.000000 89.965736 -31.038179 1393.832153
[bottomMouth]
50 -435.092926 615.759399 -0.000954 -0.000022 0.000016 73.527184 753.966492
51 -435.092926 615.759399 -0.000954 -0.000022 0.000016 73.527184 753.966492
52 -435.092926 615.759399 -0.000954 -0.000022 0.000016 73.527184 753.966492
[L_Mouth01]
50 554.440979 7.658243 838.222046 150.204178 23.759130 109.605339 1005.027161
51 554.440979 7.658243 838.222046 150.204178 23.759130 109.605339 1005.027161
52 554.440979 7.658243 838.222046 150.204178 23.759130 109.605339 1005.027161
[L_mouthFront]
50 551.629089 934.514771 339.150421 0.000081 2.804060 79.119301 1136.941284
51 551.629089 934.514771 339.150421 0.000081 2.804060 79.119301 1136.941284
52 551.629089 934.514771 339.150421 0.000081 2.804060 79.119301 1136.941284
[mouthGun]
50 55.332661 1627.420898 0.000000 0.000023 0.000009 -11.038128 1628.361328
51 55.332661 1627.420898 0.000000 0.000023 0.000009 -11.038128 1628.361328
52 55.332661 1627.420898 0.000000 0.000023 0.000009 -11.038128 1628.361328
[R_Mouth01]
50 554.442383 7.659197 -838.223938 29.795891 -23.759109 109.605331 1005.029541
51 554.442383 7.659197 -838.223938 29.795891 -23.759109 109.605331 1005.029541
52 554.442383 7.659197 -838.223938 29.795891 -23.759109 109.605331 1005.029541
[R_mouthFront]
50 551.629089 934.514282 -339.151367 0.000029 -2.803930 79.119133 1136.941162
51 551.629089 934.514282 -339.151367 0.000029 -2.803930 79.119133 1136.941162
52 551.629089 934.514282 -339.151367 0.000029 -2.803930 79.119133 1136.941162
[TopMouth]
50 461.269867 -56.106091 -0.008583 -0.000059 -0.000268 92.025169 464.669525
51 461.269867 -56.106091 -0.008583 -0.000059 -0.000268 92.025169 464.669525
52 461.269867 -56.106091 -0.008583 -0.000059 -0.000268 92.025169 464.669525
[weapon_bone]
50 -987.239868 1448.372803 0.001431 0.000000 89.965736 -31.038221 1752.833740
51 -987.239868 1448.372803 0.001431 0.000000 89.965736 -31.038221 1752.833740
52 -987.239868 1448.372803 0.001431 0.000000 89.965736 -31.038221 1752.833740
